<mxfile host="app.diagrams.net" modified="2023-08-12T05:47:14.821Z" agent="Mozilla/5.0 (Windows NT 10.0; Win64; x64) AppleWebKit/537.36 (KHTML, like Gecko) Chrome/115.0.0.0 Safari/537.36" etag="metUqWN7iDkoPvvPTqIz" version="21.6.8" type="github">
  <diagram name="Page-1" id="2YBvvXClWsGukQMizWep">
    <mxGraphModel dx="1235" dy="638" grid="1" gridSize="10" guides="1" tooltips="1" connect="1" arrows="1" fold="1" page="1" pageScale="1" pageWidth="1100" pageHeight="850" math="0" shadow="0">
      <root>
        <mxCell id="0" />
        <mxCell id="1" parent="0" />
        <mxCell id="Vc_qNqWKN2TwWsNFO-2Q-13" value="" style="rounded=1;whiteSpace=wrap;html=1;fontSize=17;fontStyle=1;fillColor=#1AB374;strokeColor=#ffffff;strokeWidth=0;" vertex="1" parent="1">
          <mxGeometry x="60" y="210" width="160" height="420" as="geometry" />
        </mxCell>
        <mxCell id="Vc_qNqWKN2TwWsNFO-2Q-2" value="&lt;font style=&quot;font-size: 20px;&quot;&gt;Data Sources&lt;/font&gt;" style="rounded=1;whiteSpace=wrap;html=1;fontSize=17;fontStyle=1;fillColor=#1AB374;strokeColor=#ffffff;strokeWidth=0;fontFamily=Tahoma;" vertex="1" parent="1">
          <mxGeometry x="50" y="160" width="160" height="40" as="geometry" />
        </mxCell>
        <mxCell id="Vc_qNqWKN2TwWsNFO-2Q-6" value="&lt;font face=&quot;Tahoma&quot; style=&quot;font-size: 20px;&quot;&gt;Data Targets&lt;/font&gt;" style="rounded=1;whiteSpace=wrap;html=1;fontSize=17;fontStyle=1;fillColor=#1AB374;strokeWidth=0;" vertex="1" parent="1">
          <mxGeometry x="890" y="160" width="160" height="40" as="geometry" />
        </mxCell>
        <mxCell id="Vc_qNqWKN2TwWsNFO-2Q-7" value="&lt;font face=&quot;Tahoma&quot; size=&quot;1&quot; style=&quot;&quot;&gt;&lt;b style=&quot;font-size: 34px;&quot;&gt;POSTAL CODE (Snowflake)&lt;/b&gt;&lt;/font&gt;" style="rounded=1;whiteSpace=wrap;html=1;fillColor=#1490FC;strokeColor=#6c8ebf;" vertex="1" parent="1">
          <mxGeometry x="120" y="30" width="860" height="60" as="geometry" />
        </mxCell>
        <mxCell id="Vc_qNqWKN2TwWsNFO-2Q-8" value="&lt;font style=&quot;font-size: 20px;&quot;&gt;&lt;b&gt;Data Flow&lt;/b&gt;&lt;/font&gt;" style="rounded=1;whiteSpace=wrap;html=1;fillColor=#479BE7;gradientColor=none;gradientDirection=west;strokeWidth=0;fontFamily=Tahoma;" vertex="1" parent="1">
          <mxGeometry x="310" y="160" width="480" height="40" as="geometry" />
        </mxCell>
        <mxCell id="Vc_qNqWKN2TwWsNFO-2Q-14" value="" style="image;html=1;image=img/lib/clip_art/general/Full_Folder_128x128.png" vertex="1" parent="1">
          <mxGeometry x="60" y="270" width="80" height="80" as="geometry" />
        </mxCell>
        <mxCell id="Vc_qNqWKN2TwWsNFO-2Q-17" value="" style="html=1;shadow=0;dashed=0;align=center;verticalAlign=middle;shape=mxgraph.arrows2.arrow;dy=0;dx=30;notch=30;fillColor=#f5f5f5;gradientColor=#b3b3b3;strokeColor=#666666;" vertex="1" parent="1">
          <mxGeometry x="220" y="160" width="80" height="40" as="geometry" />
        </mxCell>
        <mxCell id="Vc_qNqWKN2TwWsNFO-2Q-18" value="" style="html=1;shadow=0;dashed=0;align=center;verticalAlign=middle;shape=mxgraph.arrows2.arrow;dy=0;dx=30;notch=30;fillColor=#f5f5f5;gradientColor=#b3b3b3;strokeColor=#666666;" vertex="1" parent="1">
          <mxGeometry x="800" y="160" width="80" height="40" as="geometry" />
        </mxCell>
      </root>
    </mxGraphModel>
  </diagram>
</mxfile>
